<svg width="22" height="33" viewBox="0 0 22 33" fill="none" xmlns="http://www.w3.org/2000/svg">
<path d="M11 1.551L1.03399 16.5L11 31.449L20.966 16.5L11 1.551ZM11 0L22 16.5L11 33L-5.72205e-06 16.5L11 0Z" fill="#FFC22D"/>
<path d="M8.008 12.6387L7.02533 13.9587L6.61466 18.1387V13.5407L8.008 12.6387Z" fill="#FFC22D"/>
<path d="M10.5893 8.61328L9.31333 9.95528L8.88066 11.9903V10.0213L9.86333 9.18528V9.22928L10.5893 8.61328Z" fill="#FFC22D"/>
<path d="M4.80332 18.1392H6.61465L4.95732 18.4472L4.25332 19.8002L4.80332 18.1392Z" fill="#FFC22D"/>
<path d="M9.60667 11.5175V10.3075L11 9.22949V10.5825L9.60667 11.5175Z" fill="#FFC22D"/>
<path d="M10.1713 19.6902H9.73866V18.3262L10.1713 18.2822V19.6902Z" fill="#FFC22D"/>
<path d="M10.1713 16.731L9.73866 16.83V15.466L10.1713 15.312V16.731Z" fill="#FFC22D"/>
<path d="M10.1713 13.959L9.73866 14.157V12.782L10.1713 12.54V13.959Z" fill="#FFC22D"/>
<path d="M8.90999 19.6901H8.55799V18.4581L8.90999 18.4141V19.6901Z" fill="#FFC22D"/>
<path d="M8.90999 17.0284L8.55799 17.1054V15.8734L8.90999 15.7524V17.0284Z" fill="#FFC22D"/>
<path d="M8.90999 14.5309L8.55799 14.6849V13.4529L8.90999 13.2549V14.5309Z" fill="#FFC22D"/>
<path d="M7.82466 19.6897H7.53133V18.5677L7.82466 18.5347V19.6897Z" fill="#FFC22D"/>
<path d="M7.82466 17.281L7.53133 17.347V16.225L7.82466 16.126V17.281Z" fill="#FFC22D"/>
<path d="M7.82466 15.0154L7.53133 15.1474V14.0254L7.82466 13.8604V15.0154Z" fill="#FFC22D"/>
<path d="M10.5893 8.61308L11 8.21708L9.86332 9.18508V7.48008L11 5.83008L12.1367 7.48008V9.18508L13.1193 10.0211V12.0011L15.3927 13.5301V18.1281H17.1967L17.7467 19.8001H15.4H11V10.6811V10.5821L12.3933 11.5171V10.3071L11 9.22908V8.27208L10.5893 8.61308ZM10.6407 7.75508L10.296 8.07408V8.73408L10.6407 8.43708V7.75508ZM12.2613 12.7821L11.8213 12.5401V13.9591L12.2613 14.1571V12.7821ZM12.2613 15.4661L11.8213 15.3121V16.7311L12.2613 16.8301V15.4661ZM12.2613 18.3261L11.8213 18.2821V19.6901H12.2613V18.3261ZM14.1753 19.6901H14.4687V18.5681L14.1753 18.5351V19.6901ZM14.1753 17.2811L14.4687 17.3471V16.2251L14.1753 16.1261V17.2811ZM14.1753 15.0151L14.4687 15.1471V14.0251L14.1753 13.8601V15.0151ZM13.09 19.6901H13.4493V18.4581L13.09 18.4141V19.6901ZM13.09 17.0281L13.4493 17.1161V15.8841L13.09 15.7631V17.0281ZM13.09 14.5311L13.4493 14.6961V13.4641L13.09 13.2661V14.5311ZM11.3007 8.44808L11.6453 8.74508V8.08508L11.3007 7.76608V8.44808Z" fill="#FFC22D"/>
<path d="M10.5893 8.61303L9.86333 9.22903V9.18503L11 8.22803L10.5893 8.61303Z" fill="#FFC22D"/>
<path d="M19.1033 19.7456L2.93333 19.8006L11 31.9006L19.1033 19.7456Z" fill="#FFC22D"/>
</svg>
